<mxfile host="app.diagrams.net" modified="2024-03-03T06:06:10.115Z" agent="Mozilla/5.0 (Windows NT 10.0; Win64; x64) AppleWebKit/537.36 (KHTML, like Gecko) Chrome/122.0.0.0 Safari/537.36" etag="fbmA_sK2dAIbJavQhZoP" version="24.0.1" type="device">
  <diagram name="PÃ¡gina-1" id="3SsgYNXeec2Qkv3DHCwN">
    <mxGraphModel dx="952" dy="1774" grid="1" gridSize="10" guides="1" tooltips="1" connect="1" arrows="1" fold="1" page="1" pageScale="1" pageWidth="827" pageHeight="1169" math="0" shadow="0">
      <root>
        <mxCell id="0" />
        <mxCell id="1" parent="0" />
        <mxCell id="UyKv3BKICgCDSL1A3bAF-1" value="PERSONA" style="rounded=0;whiteSpace=wrap;html=1;" parent="1" vertex="1">
          <mxGeometry x="340" y="100" width="120" height="60" as="geometry" />
        </mxCell>
        <mxCell id="UyKv3BKICgCDSL1A3bAF-2" value="&lt;u&gt;NSS&lt;/u&gt;" style="ellipse;whiteSpace=wrap;html=1;" parent="1" vertex="1">
          <mxGeometry x="150" y="80" width="120" height="80" as="geometry" />
        </mxCell>
        <mxCell id="UyKv3BKICgCDSL1A3bAF-3" value="sexo" style="ellipse;whiteSpace=wrap;html=1;" parent="1" vertex="1">
          <mxGeometry x="540" y="80" width="120" height="80" as="geometry" />
        </mxCell>
        <mxCell id="UyKv3BKICgCDSL1A3bAF-4" value="fechaNacimiento" style="ellipse;whiteSpace=wrap;html=1;" parent="1" vertex="1">
          <mxGeometry x="460" y="-10" width="120" height="80" as="geometry" />
        </mxCell>
        <mxCell id="UyKv3BKICgCDSL1A3bAF-5" value="nombre" style="ellipse;whiteSpace=wrap;html=1;" parent="1" vertex="1">
          <mxGeometry x="230" y="-10" width="120" height="80" as="geometry" />
        </mxCell>
        <mxCell id="UyKv3BKICgCDSL1A3bAF-6" value="direccion" style="ellipse;whiteSpace=wrap;html=1;" parent="1" vertex="1">
          <mxGeometry x="340" y="-90" width="120" height="80" as="geometry" />
        </mxCell>
        <mxCell id="UyKv3BKICgCDSL1A3bAF-7" value="" style="endArrow=none;html=1;rounded=0;entryX=0.5;entryY=1;entryDx=0;entryDy=0;" parent="1" source="jEijTU99BV4A2DnGK9AS-15" target="UyKv3BKICgCDSL1A3bAF-1" edge="1">
          <mxGeometry width="50" height="50" relative="1" as="geometry">
            <mxPoint x="400" y="240" as="sourcePoint" />
            <mxPoint x="440" y="230" as="targetPoint" />
          </mxGeometry>
        </mxCell>
        <mxCell id="UyKv3BKICgCDSL1A3bAF-11" value="" style="endArrow=none;html=1;rounded=0;entryX=0.5;entryY=1;entryDx=0;entryDy=0;" parent="1" target="UyKv3BKICgCDSL1A3bAF-8" edge="1">
          <mxGeometry width="50" height="50" relative="1" as="geometry">
            <mxPoint x="400" y="240" as="sourcePoint" />
            <mxPoint x="400" y="160" as="targetPoint" />
          </mxGeometry>
        </mxCell>
        <mxCell id="UyKv3BKICgCDSL1A3bAF-8" value="" style="triangle;whiteSpace=wrap;html=1;rotation=90;" parent="1" vertex="1">
          <mxGeometry x="380" y="200" width="40" height="50" as="geometry" />
        </mxCell>
        <mxCell id="UyKv3BKICgCDSL1A3bAF-12" value="EGRESADO" style="rounded=0;whiteSpace=wrap;html=1;" parent="1" vertex="1">
          <mxGeometry x="50" y="270" width="120" height="60" as="geometry" />
        </mxCell>
        <mxCell id="UyKv3BKICgCDSL1A3bAF-13" value="ESTUDIANTE" style="rounded=0;whiteSpace=wrap;html=1;" parent="1" vertex="1">
          <mxGeometry x="280" y="280" width="120" height="60" as="geometry" />
        </mxCell>
        <mxCell id="UyKv3BKICgCDSL1A3bAF-14" value="EMPLEADO" style="rounded=0;whiteSpace=wrap;html=1;" parent="1" vertex="1">
          <mxGeometry x="640" y="280" width="120" height="60" as="geometry" />
        </mxCell>
        <mxCell id="UyKv3BKICgCDSL1A3bAF-15" value="salario" style="ellipse;whiteSpace=wrap;html=1;" parent="1" vertex="1">
          <mxGeometry x="760" y="230" width="80" height="50" as="geometry" />
        </mxCell>
        <mxCell id="UyKv3BKICgCDSL1A3bAF-16" value="grado" style="ellipse;whiteSpace=wrap;html=1;" parent="1" vertex="1">
          <mxGeometry x="75" y="350" width="70" height="40" as="geometry" />
        </mxCell>
        <mxCell id="UyKv3BKICgCDSL1A3bAF-17" value="fecha" style="ellipse;whiteSpace=wrap;html=1;" parent="1" vertex="1">
          <mxGeometry x="30" y="410" width="70" height="40" as="geometry" />
        </mxCell>
        <mxCell id="UyKv3BKICgCDSL1A3bAF-18" value="nombre" style="ellipse;whiteSpace=wrap;html=1;" parent="1" vertex="1">
          <mxGeometry x="120" y="410" width="70" height="40" as="geometry" />
        </mxCell>
        <mxCell id="UyKv3BKICgCDSL1A3bAF-19" value="" style="endArrow=none;html=1;rounded=0;" parent="1" target="UyKv3BKICgCDSL1A3bAF-20" edge="1">
          <mxGeometry width="50" height="50" relative="1" as="geometry">
            <mxPoint x="340" y="390" as="sourcePoint" />
            <mxPoint x="340" y="340" as="targetPoint" />
          </mxGeometry>
        </mxCell>
        <mxCell id="UyKv3BKICgCDSL1A3bAF-21" style="edgeStyle=orthogonalEdgeStyle;rounded=0;orthogonalLoop=1;jettySize=auto;html=1;entryX=0.5;entryY=1;entryDx=0;entryDy=0;" parent="1" source="UyKv3BKICgCDSL1A3bAF-20" target="UyKv3BKICgCDSL1A3bAF-13" edge="1">
          <mxGeometry relative="1" as="geometry" />
        </mxCell>
        <mxCell id="UyKv3BKICgCDSL1A3bAF-20" value="" style="triangle;whiteSpace=wrap;html=1;rotation=90;" parent="1" vertex="1">
          <mxGeometry x="320" y="360" width="40" height="60" as="geometry" />
        </mxCell>
        <mxCell id="UyKv3BKICgCDSL1A3bAF-22" value="LICENCIATURA" style="rounded=0;whiteSpace=wrap;html=1;" parent="1" vertex="1">
          <mxGeometry x="220" y="430" width="100" height="40" as="geometry" />
        </mxCell>
        <mxCell id="UyKv3BKICgCDSL1A3bAF-23" value="POSGRADO" style="rounded=0;whiteSpace=wrap;html=1;" parent="1" vertex="1">
          <mxGeometry x="370" y="430" width="100" height="40" as="geometry" />
        </mxCell>
        <mxCell id="UyKv3BKICgCDSL1A3bAF-24" value="programa" style="ellipse;whiteSpace=wrap;html=1;" parent="1" vertex="1">
          <mxGeometry x="375" y="500" width="90" height="50" as="geometry" />
        </mxCell>
        <mxCell id="UyKv3BKICgCDSL1A3bAF-25" value="creditos" style="ellipse;whiteSpace=wrap;html=1;" parent="1" vertex="1">
          <mxGeometry x="225" y="502.5" width="90" height="50" as="geometry" />
        </mxCell>
        <mxCell id="UyKv3BKICgCDSL1A3bAF-26" value="PERSONAL" style="rounded=0;whiteSpace=wrap;html=1;" parent="1" vertex="1">
          <mxGeometry x="520" y="370" width="100" height="50" as="geometry" />
        </mxCell>
        <mxCell id="UyKv3BKICgCDSL1A3bAF-27" value="PROFESOR" style="rounded=0;whiteSpace=wrap;html=1;" parent="1" vertex="1">
          <mxGeometry x="650" y="425" width="100" height="50" as="geometry" />
        </mxCell>
        <mxCell id="jEijTU99BV4A2DnGK9AS-1" value="AYUDANTE" style="rounded=0;whiteSpace=wrap;html=1;" parent="1" vertex="1">
          <mxGeometry x="790" y="360" width="100" height="50" as="geometry" />
        </mxCell>
        <mxCell id="jEijTU99BV4A2DnGK9AS-2" value="INVESTIGADOR" style="rounded=0;whiteSpace=wrap;html=1;" parent="1" vertex="1">
          <mxGeometry x="770" y="550" width="120" height="60" as="geometry" />
        </mxCell>
        <mxCell id="jEijTU99BV4A2DnGK9AS-3" value="PROFESOR" style="rounded=0;whiteSpace=wrap;html=1;" parent="1" vertex="1">
          <mxGeometry x="940" y="525" width="120" height="60" as="geometry" />
        </mxCell>
        <mxCell id="jEijTU99BV4A2DnGK9AS-4" value="proyectos" style="ellipse;whiteSpace=wrap;html=1;" parent="1" vertex="1">
          <mxGeometry x="780" y="640" width="100" height="50" as="geometry" />
        </mxCell>
        <mxCell id="jEijTU99BV4A2DnGK9AS-5" value="materia" style="ellipse;whiteSpace=wrap;html=1;" parent="1" vertex="1">
          <mxGeometry x="970" y="630" width="90" height="45" as="geometry" />
        </mxCell>
        <mxCell id="jEijTU99BV4A2DnGK9AS-6" value="horas" style="ellipse;whiteSpace=wrap;html=1;" parent="1" vertex="1">
          <mxGeometry x="940" y="360" width="80" height="50" as="geometry" />
        </mxCell>
        <mxCell id="jEijTU99BV4A2DnGK9AS-7" value="tipo" style="ellipse;whiteSpace=wrap;html=1;" parent="1" vertex="1">
          <mxGeometry x="660" y="496.25" width="80" height="62.5" as="geometry" />
        </mxCell>
        <mxCell id="jEijTU99BV4A2DnGK9AS-8" value="puesto" style="ellipse;whiteSpace=wrap;html=1;" parent="1" vertex="1">
          <mxGeometry x="530" y="460" width="80" height="60" as="geometry" />
        </mxCell>
        <mxCell id="jEijTU99BV4A2DnGK9AS-9" value="departamento" style="ellipse;whiteSpace=wrap;html=1;" parent="1" vertex="1">
          <mxGeometry x="440" y="285" width="90" height="50" as="geometry" />
        </mxCell>
        <mxCell id="jEijTU99BV4A2DnGK9AS-10" value="" style="endArrow=none;html=1;rounded=0;entryX=0.5;entryY=1;entryDx=0;entryDy=0;exitX=0.5;exitY=0;exitDx=0;exitDy=0;" parent="1" source="UyKv3BKICgCDSL1A3bAF-1" target="UyKv3BKICgCDSL1A3bAF-6" edge="1">
          <mxGeometry width="50" height="50" relative="1" as="geometry">
            <mxPoint x="395" y="100" as="sourcePoint" />
            <mxPoint x="445" y="50" as="targetPoint" />
          </mxGeometry>
        </mxCell>
        <mxCell id="jEijTU99BV4A2DnGK9AS-11" value="" style="endArrow=none;html=1;rounded=0;entryX=1;entryY=1;entryDx=0;entryDy=0;" parent="1" target="UyKv3BKICgCDSL1A3bAF-5" edge="1">
          <mxGeometry width="50" height="50" relative="1" as="geometry">
            <mxPoint x="360" y="100" as="sourcePoint" />
            <mxPoint x="410" y="50" as="targetPoint" />
          </mxGeometry>
        </mxCell>
        <mxCell id="jEijTU99BV4A2DnGK9AS-12" value="" style="endArrow=none;html=1;rounded=0;entryX=0;entryY=1;entryDx=0;entryDy=0;" parent="1" target="UyKv3BKICgCDSL1A3bAF-4" edge="1">
          <mxGeometry width="50" height="50" relative="1" as="geometry">
            <mxPoint x="430" y="100" as="sourcePoint" />
            <mxPoint x="480" y="50" as="targetPoint" />
          </mxGeometry>
        </mxCell>
        <mxCell id="jEijTU99BV4A2DnGK9AS-13" value="" style="endArrow=none;html=1;rounded=0;entryX=0.06;entryY=0.69;entryDx=0;entryDy=0;entryPerimeter=0;" parent="1" target="UyKv3BKICgCDSL1A3bAF-3" edge="1">
          <mxGeometry width="50" height="50" relative="1" as="geometry">
            <mxPoint x="460" y="130" as="sourcePoint" />
            <mxPoint x="510" y="80" as="targetPoint" />
          </mxGeometry>
        </mxCell>
        <mxCell id="jEijTU99BV4A2DnGK9AS-14" value="" style="endArrow=none;html=1;rounded=0;exitX=0.957;exitY=0.68;exitDx=0;exitDy=0;exitPerimeter=0;" parent="1" source="UyKv3BKICgCDSL1A3bAF-2" edge="1">
          <mxGeometry width="50" height="50" relative="1" as="geometry">
            <mxPoint x="290" y="180" as="sourcePoint" />
            <mxPoint x="340" y="130" as="targetPoint" />
          </mxGeometry>
        </mxCell>
        <mxCell id="jEijTU99BV4A2DnGK9AS-17" value="" style="endArrow=none;html=1;rounded=0;" parent="1" edge="1">
          <mxGeometry width="50" height="50" relative="1" as="geometry">
            <mxPoint x="130" y="240" as="sourcePoint" />
            <mxPoint x="400" y="245" as="targetPoint" />
          </mxGeometry>
        </mxCell>
        <mxCell id="jEijTU99BV4A2DnGK9AS-18" value="" style="endArrow=none;html=1;rounded=0;exitX=0.623;exitY=-0.033;exitDx=0;exitDy=0;exitPerimeter=0;" parent="1" source="UyKv3BKICgCDSL1A3bAF-12" edge="1">
          <mxGeometry width="50" height="50" relative="1" as="geometry">
            <mxPoint x="75" y="285" as="sourcePoint" />
            <mxPoint x="125" y="235" as="targetPoint" />
          </mxGeometry>
        </mxCell>
        <mxCell id="jEijTU99BV4A2DnGK9AS-19" value="" style="endArrow=none;html=1;rounded=0;" parent="1" edge="1">
          <mxGeometry width="50" height="50" relative="1" as="geometry">
            <mxPoint x="340" y="280" as="sourcePoint" />
            <mxPoint x="340" y="240" as="targetPoint" />
          </mxGeometry>
        </mxCell>
        <mxCell id="jEijTU99BV4A2DnGK9AS-20" value="" style="endArrow=none;html=1;rounded=0;entryX=0.5;entryY=1;entryDx=0;entryDy=0;" parent="1" source="UyKv3BKICgCDSL1A3bAF-8" target="jEijTU99BV4A2DnGK9AS-15" edge="1">
          <mxGeometry width="50" height="50" relative="1" as="geometry">
            <mxPoint x="400" y="205" as="sourcePoint" />
            <mxPoint x="400" y="160" as="targetPoint" />
          </mxGeometry>
        </mxCell>
        <mxCell id="jEijTU99BV4A2DnGK9AS-15" value="&lt;p style=&quot;line-height: 150%;&quot;&gt;O&lt;/p&gt;" style="text;html=1;align=center;verticalAlign=middle;whiteSpace=wrap;rounded=0;" parent="1" vertex="1">
          <mxGeometry x="365" y="205" width="70" height="40" as="geometry" />
        </mxCell>
        <mxCell id="jEijTU99BV4A2DnGK9AS-21" value="" style="endArrow=none;html=1;rounded=0;exitX=0.397;exitY=1.04;exitDx=0;exitDy=0;exitPerimeter=0;" parent="1" source="jEijTU99BV4A2DnGK9AS-15" edge="1">
          <mxGeometry width="50" height="50" relative="1" as="geometry">
            <mxPoint x="400" y="250" as="sourcePoint" />
            <mxPoint x="680" y="240" as="targetPoint" />
          </mxGeometry>
        </mxCell>
        <mxCell id="jEijTU99BV4A2DnGK9AS-22" value="" style="endArrow=none;html=1;rounded=0;exitX=0.32;exitY=-0.04;exitDx=0;exitDy=0;exitPerimeter=0;" parent="1" source="UyKv3BKICgCDSL1A3bAF-14" edge="1">
          <mxGeometry width="50" height="50" relative="1" as="geometry">
            <mxPoint x="630" y="290" as="sourcePoint" />
            <mxPoint x="680" y="240" as="targetPoint" />
          </mxGeometry>
        </mxCell>
        <mxCell id="jEijTU99BV4A2DnGK9AS-23" value="" style="endArrow=none;html=1;rounded=0;exitX=1;exitY=0.5;exitDx=0;exitDy=0;entryX=0;entryY=0.5;entryDx=0;entryDy=0;" parent="1" source="UyKv3BKICgCDSL1A3bAF-13" target="jEijTU99BV4A2DnGK9AS-9" edge="1">
          <mxGeometry width="50" height="50" relative="1" as="geometry">
            <mxPoint x="410" y="410" as="sourcePoint" />
            <mxPoint x="460" y="360" as="targetPoint" />
          </mxGeometry>
        </mxCell>
        <mxCell id="jEijTU99BV4A2DnGK9AS-24" value="" style="endArrow=none;html=1;rounded=0;" parent="1" edge="1">
          <mxGeometry width="50" height="50" relative="1" as="geometry">
            <mxPoint x="710" y="420" as="sourcePoint" />
            <mxPoint x="710" y="340" as="targetPoint" />
          </mxGeometry>
        </mxCell>
        <mxCell id="jEijTU99BV4A2DnGK9AS-25" value="" style="endArrow=none;html=1;rounded=0;entryX=0.34;entryY=1;entryDx=0;entryDy=0;entryPerimeter=0;" parent="1" target="UyKv3BKICgCDSL1A3bAF-15" edge="1">
          <mxGeometry width="50" height="50" relative="1" as="geometry">
            <mxPoint x="760" y="325" as="sourcePoint" />
            <mxPoint x="810" y="275" as="targetPoint" />
          </mxGeometry>
        </mxCell>
        <mxCell id="jEijTU99BV4A2DnGK9AS-26" value="" style="endArrow=none;html=1;rounded=0;exitX=0.691;exitY=-0.01;exitDx=0;exitDy=0;exitPerimeter=0;" parent="1" source="UyKv3BKICgCDSL1A3bAF-17" edge="1">
          <mxGeometry width="50" height="50" relative="1" as="geometry">
            <mxPoint x="50" y="440" as="sourcePoint" />
            <mxPoint x="100" y="390" as="targetPoint" />
          </mxGeometry>
        </mxCell>
        <mxCell id="jEijTU99BV4A2DnGK9AS-27" value="" style="endArrow=none;html=1;rounded=0;exitX=0.32;exitY=0.07;exitDx=0;exitDy=0;exitPerimeter=0;" parent="1" source="UyKv3BKICgCDSL1A3bAF-18" edge="1">
          <mxGeometry width="50" height="50" relative="1" as="geometry">
            <mxPoint x="75" y="440" as="sourcePoint" />
            <mxPoint x="125" y="390" as="targetPoint" />
          </mxGeometry>
        </mxCell>
        <mxCell id="jEijTU99BV4A2DnGK9AS-28" value="" style="endArrow=none;html=1;rounded=0;exitX=0.643;exitY=0.05;exitDx=0;exitDy=0;exitPerimeter=0;" parent="1" source="UyKv3BKICgCDSL1A3bAF-16" edge="1">
          <mxGeometry width="50" height="50" relative="1" as="geometry">
            <mxPoint x="70" y="380" as="sourcePoint" />
            <mxPoint x="120" y="330" as="targetPoint" />
          </mxGeometry>
        </mxCell>
        <mxCell id="N71ef5Pl6BmOhUtynWIp-1" value="" style="endArrow=none;html=1;rounded=0;" edge="1" parent="1">
          <mxGeometry width="50" height="50" relative="1" as="geometry">
            <mxPoint x="620" y="390" as="sourcePoint" />
            <mxPoint x="710" y="390" as="targetPoint" />
          </mxGeometry>
        </mxCell>
        <mxCell id="N71ef5Pl6BmOhUtynWIp-2" value="" style="endArrow=none;html=1;rounded=0;entryX=0;entryY=0.5;entryDx=0;entryDy=0;" edge="1" parent="1" target="jEijTU99BV4A2DnGK9AS-1">
          <mxGeometry width="50" height="50" relative="1" as="geometry">
            <mxPoint x="710" y="390" as="sourcePoint" />
            <mxPoint x="780" y="390" as="targetPoint" />
          </mxGeometry>
        </mxCell>
        <mxCell id="N71ef5Pl6BmOhUtynWIp-4" value="" style="endArrow=none;html=1;rounded=0;entryX=0;entryY=0.5;entryDx=0;entryDy=0;" edge="1" parent="1" target="N71ef5Pl6BmOhUtynWIp-3">
          <mxGeometry width="50" height="50" relative="1" as="geometry">
            <mxPoint x="710" y="389.5" as="sourcePoint" />
            <mxPoint x="790" y="385" as="targetPoint" />
          </mxGeometry>
        </mxCell>
        <mxCell id="N71ef5Pl6BmOhUtynWIp-3" value="" style="triangle;whiteSpace=wrap;html=1;rotation=90;" vertex="1" parent="1">
          <mxGeometry x="700" y="350" width="20" height="40" as="geometry" />
        </mxCell>
        <mxCell id="N71ef5Pl6BmOhUtynWIp-5" value="" style="endArrow=none;html=1;rounded=0;" edge="1" parent="1" source="jEijTU99BV4A2DnGK9AS-8" target="UyKv3BKICgCDSL1A3bAF-26">
          <mxGeometry width="50" height="50" relative="1" as="geometry">
            <mxPoint x="460" y="440" as="sourcePoint" />
            <mxPoint x="510" y="390" as="targetPoint" />
          </mxGeometry>
        </mxCell>
        <mxCell id="N71ef5Pl6BmOhUtynWIp-6" value="" style="endArrow=none;html=1;rounded=0;" edge="1" parent="1" source="jEijTU99BV4A2DnGK9AS-7">
          <mxGeometry width="50" height="50" relative="1" as="geometry">
            <mxPoint x="650" y="525" as="sourcePoint" />
            <mxPoint x="700" y="475" as="targetPoint" />
          </mxGeometry>
        </mxCell>
        <mxCell id="N71ef5Pl6BmOhUtynWIp-7" value="" style="endArrow=none;html=1;rounded=0;exitX=0.584;exitY=-0.008;exitDx=0;exitDy=0;exitPerimeter=0;" edge="1" parent="1" source="jEijTU99BV4A2DnGK9AS-4">
          <mxGeometry width="50" height="50" relative="1" as="geometry">
            <mxPoint x="865" y="580" as="sourcePoint" />
            <mxPoint x="840" y="610" as="targetPoint" />
          </mxGeometry>
        </mxCell>
        <mxCell id="N71ef5Pl6BmOhUtynWIp-8" value="" style="endArrow=none;html=1;rounded=0;entryX=0.653;entryY=1.023;entryDx=0;entryDy=0;entryPerimeter=0;" edge="1" parent="1" source="jEijTU99BV4A2DnGK9AS-5" target="jEijTU99BV4A2DnGK9AS-3">
          <mxGeometry width="50" height="50" relative="1" as="geometry">
            <mxPoint x="950" y="535" as="sourcePoint" />
            <mxPoint x="1000" y="485" as="targetPoint" />
          </mxGeometry>
        </mxCell>
        <mxCell id="N71ef5Pl6BmOhUtynWIp-9" value="" style="endArrow=none;html=1;rounded=0;entryX=0;entryY=0.5;entryDx=0;entryDy=0;" edge="1" parent="1" target="jEijTU99BV4A2DnGK9AS-6">
          <mxGeometry width="50" height="50" relative="1" as="geometry">
            <mxPoint x="890" y="385" as="sourcePoint" />
            <mxPoint x="940" y="335" as="targetPoint" />
          </mxGeometry>
        </mxCell>
        <mxCell id="N71ef5Pl6BmOhUtynWIp-11" value="" style="endArrow=none;html=1;rounded=0;" edge="1" parent="1" source="N71ef5Pl6BmOhUtynWIp-15">
          <mxGeometry width="50" height="50" relative="1" as="geometry">
            <mxPoint x="840" y="480" as="sourcePoint" />
            <mxPoint x="840" y="410" as="targetPoint" />
          </mxGeometry>
        </mxCell>
        <mxCell id="N71ef5Pl6BmOhUtynWIp-12" value="" style="endArrow=none;html=1;rounded=0;" edge="1" parent="1">
          <mxGeometry width="50" height="50" relative="1" as="geometry">
            <mxPoint x="810" y="480" as="sourcePoint" />
            <mxPoint x="960" y="480" as="targetPoint" />
          </mxGeometry>
        </mxCell>
        <mxCell id="N71ef5Pl6BmOhUtynWIp-13" value="" style="endArrow=none;html=1;rounded=0;" edge="1" parent="1">
          <mxGeometry width="50" height="50" relative="1" as="geometry">
            <mxPoint x="810" y="545" as="sourcePoint" />
            <mxPoint x="810" y="480" as="targetPoint" />
          </mxGeometry>
        </mxCell>
        <mxCell id="N71ef5Pl6BmOhUtynWIp-14" value="" style="endArrow=none;html=1;rounded=0;exitX=0.173;exitY=-0.017;exitDx=0;exitDy=0;exitPerimeter=0;" edge="1" parent="1" source="jEijTU99BV4A2DnGK9AS-3">
          <mxGeometry width="50" height="50" relative="1" as="geometry">
            <mxPoint x="910" y="530" as="sourcePoint" />
            <mxPoint x="960" y="480" as="targetPoint" />
          </mxGeometry>
        </mxCell>
        <mxCell id="N71ef5Pl6BmOhUtynWIp-16" value="" style="endArrow=none;html=1;rounded=0;" edge="1" parent="1" target="N71ef5Pl6BmOhUtynWIp-15">
          <mxGeometry width="50" height="50" relative="1" as="geometry">
            <mxPoint x="840" y="480" as="sourcePoint" />
            <mxPoint x="840" y="410" as="targetPoint" />
          </mxGeometry>
        </mxCell>
        <mxCell id="N71ef5Pl6BmOhUtynWIp-15" value="" style="triangle;whiteSpace=wrap;html=1;rotation=90;" vertex="1" parent="1">
          <mxGeometry x="825" y="420" width="30" height="50" as="geometry" />
        </mxCell>
        <mxCell id="N71ef5Pl6BmOhUtynWIp-17" value="" style="endArrow=none;html=1;rounded=0;entryX=0.5;entryY=1;entryDx=0;entryDy=0;" edge="1" parent="1" target="UyKv3BKICgCDSL1A3bAF-20">
          <mxGeometry width="50" height="50" relative="1" as="geometry">
            <mxPoint x="270" y="430" as="sourcePoint" />
            <mxPoint x="320" y="380" as="targetPoint" />
          </mxGeometry>
        </mxCell>
        <mxCell id="N71ef5Pl6BmOhUtynWIp-18" value="" style="endArrow=none;html=1;rounded=0;" edge="1" parent="1" target="UyKv3BKICgCDSL1A3bAF-20">
          <mxGeometry width="50" height="50" relative="1" as="geometry">
            <mxPoint x="400" y="430" as="sourcePoint" />
            <mxPoint x="450" y="380" as="targetPoint" />
          </mxGeometry>
        </mxCell>
        <mxCell id="N71ef5Pl6BmOhUtynWIp-19" value="" style="endArrow=none;html=1;rounded=0;" edge="1" parent="1" source="UyKv3BKICgCDSL1A3bAF-25">
          <mxGeometry width="50" height="50" relative="1" as="geometry">
            <mxPoint x="220" y="520" as="sourcePoint" />
            <mxPoint x="270" y="470" as="targetPoint" />
          </mxGeometry>
        </mxCell>
        <mxCell id="N71ef5Pl6BmOhUtynWIp-20" value="" style="endArrow=none;html=1;rounded=0;exitX=0.5;exitY=0;exitDx=0;exitDy=0;" edge="1" parent="1" source="UyKv3BKICgCDSL1A3bAF-24">
          <mxGeometry width="50" height="50" relative="1" as="geometry">
            <mxPoint x="370" y="520" as="sourcePoint" />
            <mxPoint x="420" y="470" as="targetPoint" />
          </mxGeometry>
        </mxCell>
        <mxCell id="N71ef5Pl6BmOhUtynWIp-22" value="" style="curved=1;endArrow=classic;html=1;rounded=0;" edge="1" parent="1">
          <mxGeometry width="50" height="50" relative="1" as="geometry">
            <mxPoint x="750" y="360" as="sourcePoint" />
            <mxPoint x="680" y="360" as="targetPoint" />
            <Array as="points">
              <mxPoint x="740" y="390" />
              <mxPoint x="720" y="410" />
              <mxPoint x="690" y="390" />
            </Array>
          </mxGeometry>
        </mxCell>
        <mxCell id="N71ef5Pl6BmOhUtynWIp-30" value="" style="curved=1;endArrow=classic;html=1;rounded=0;" edge="1" parent="1">
          <mxGeometry width="50" height="50" relative="1" as="geometry">
            <mxPoint x="295" y="375" as="sourcePoint" />
            <mxPoint x="380" y="385" as="targetPoint" />
            <Array as="points">
              <mxPoint x="305" y="425" />
              <mxPoint x="365" y="425" />
              <mxPoint x="375" y="405" />
              <mxPoint x="385" y="365" />
            </Array>
          </mxGeometry>
        </mxCell>
        <mxCell id="N71ef5Pl6BmOhUtynWIp-31" value="" style="curved=1;endArrow=classic;html=1;rounded=0;" edge="1" parent="1">
          <mxGeometry width="50" height="50" relative="1" as="geometry">
            <mxPoint x="800" y="420" as="sourcePoint" />
            <mxPoint x="885" y="430" as="targetPoint" />
            <Array as="points">
              <mxPoint x="810" y="470" />
              <mxPoint x="870" y="470" />
              <mxPoint x="880" y="450" />
              <mxPoint x="890" y="410" />
            </Array>
          </mxGeometry>
        </mxCell>
      </root>
    </mxGraphModel>
  </diagram>
</mxfile>
